Resident Evil Hospede Maldito HD.mkv
Format                                   : Matroska
Format version                           : Version 4 / Version 2
File size                                : 2.78 GiB
Duration                                 : 1h 40mn
Overall bit rate mode                    : Variable
Overall bit rate                         : 3 965 Kbps
Encoded date                             : UTC 2013-02-19 14:09:28
Writing application                      : mkvmerge v6.0.0 ('Coming Up For Air') built on Jan 20 2013 09:52:00
Writing library                          : libebml v1.3.0 + libmatroska v1.4.0

Video
ID                                       : 1
Format                                   : AVC
Format/Info                              : Advanced Video Codec
Format profile                           : Main@L4.0
Format settings, CABAC                   : Yes
Format settings, ReFrames                : 4 frames
Codec ID                                 : V_MPEG4/ISO/AVC
Duration                                 : 1h 40mn
Nominal bit rate                         : 3 000 Kbps
Width                                    : 1 920 pixels
Height                                   : 1 040 pixels
Display aspect ratio                     : 16:9
Frame rate mode                          : Variable
Frame rate                               : 23.976 fps
Color space                              : YUV
Chroma subsampling                       : 4:2:0
Bit depth                                : 8 bits
Scan type                                : Progressive

Audio #1
ID                                       : 2
Format                                   : MPEG Audio
Format version                           : Version 1
Format profile                           : Layer 3
Mode                                     : Joint stereo
Mode extension                           : MS Stereo
Codec ID                                 : A_MPEG/L3
Codec ID/Hint                            : MP3
Duration                                 : 1h 40mn
Bit rate mode                            : Variable
Bit rate                                 : 118 Kbps
Nominal bit rate                         : 128 Kbps
Channel(s)                               : 2 channels
Sampling rate                            : 48.0 KHz
Language                                 : Portuguese
Default                                  : Yes
Forced                                   : No

Audio #2
ID                                       : 3
Format                                   : AAC
Format/Info                              : Advanced Audio Codec
Format profile                           : Main
Codec ID                                 : A_AAC
Duration                                 : 1h 40mn
Channel(s)                               : 2 channels
Channel positions                        : Front: L R
Sampling rate                            : 44.1 KHz
Compression mode                         : Lossy
Language                                 : Portuguese
Default                                  : No
Forced                                   : No

Audio #3
ID                                       : 4
Format                                   : AC-3
Format/Info                              : Audio Coding 3
Mode extension                           : CM (complete main)
Codec ID                                 : A_AC3
Duration                                 : 1h 40mn
Bit rate mode                            : Constant
Bit rate                                 : 640 Kbps
Channel(s)                               : 6 channels
Channel positions                        : Front: L C R, Side: L R, LFE
Sampling rate                            : 48.0 KHz
Bit depth                                : 16 bits
Compression mode                         : Lossy
Stream size                              : 460 MiB (16%)
Language                                 : English
Default                                  : No
Forced                                   : No

Audio #4
ID                                       : 5
Format                                   : MPEG Audio
Format version                           : Version 1
Format profile                           : Layer 3
Mode                                     : Joint stereo
Mode extension                           : MS Stereo
Codec ID                                 : A_MPEG/L3
Codec ID/Hint                            : MP3
Duration                                 : 1h 40mn
Bit rate mode                            : Variable
Bit rate                                 : 119 Kbps
Nominal bit rate                         : 128 Kbps
Channel(s)                               : 2 channels
Sampling rate                            : 48.0 KHz
Compression mode                         : Lossy
Stream size                              : 85.2 MiB (3%)
Writing library                          : LAME3.97 
Encoding settings                        : -m j -V 4 -q 2 -lowpass 17 --abr 128
Language                                 : English
Default                                  : No
Forced                                   : No

Text #1
ID                                       : 6
Format                                   : UTF-8
Codec ID                                 : S_TEXT/UTF8
Codec ID/Info                            : UTF-8 Plain Text
Language                                 : Portuguese
Default                                  : No
Forced                                   : No

Text #2
ID                                       : 7
Format                                   : UTF-8
Codec ID                                 : S_TEXT/UTF8
Codec ID/Info                            : UTF-8 Plain Text
Language                                 : English
Default                                  : No
Forced                                   : No

Menu
00:00:00.000                             : en:Chapter 1
00:08:22.594                             : en:Chapter 2
00:11:00.419                             : en:Chapter 3
00:19:09.449                             : en:Chapter 4
00:23:49.020                             : en:Chapter 5
00:29:22.478                             : en:Chapter 6
00:37:51.236                             : en:Chapter 7
00:41:14.564                             : en:Chapter 8
00:47:11.838                             : en:Chapter 9
00:52:16.601                             : en:Chapter 10
01:00:47.987                             : en:Chapter 11
01:08:35.704                             : en:Chapter 12
01:12:05.330                             : en:Chapter 13
01:18:33.676                             : en:Chapter 14
01:24:22.233                             : en:Chapter 15
01:30:16.170                             : en:Chapter 16
